<svg width="18" height="18" viewBox="0 0 18 18" fill="none" xmlns="http://www.w3.org/2000/svg">
<path d="M1.8 4.5C1.8 4.00294 1.39706 3.6 0.9 3.6C0.402944 3.6 0 4.00294 0 4.5V16.2C0 16.6774 0.189642 17.1352 0.527208 17.4728C0.864773 17.8104 1.32261 18 1.8 18H13.5C13.9971 18 14.4 17.5971 14.4 17.1C14.4 16.6029 13.9971 16.2 13.5 16.2H1.8V4.5ZM14.85 11.025C14.85 9.675 12.15 9 10.8 9C9.45 9 6.75 9.675 6.75 11.025V11.7H14.85V11.025ZM10.8 7.425C11.916 7.425 12.825 6.516 12.825 5.4C12.825 4.284 11.916 3.375 10.8 3.375C9.684 3.375 8.775 4.284 8.775 5.4C8.775 6.516 9.684 7.425 10.8 7.425ZM16.2 0H5.4C4.41 0 3.6 0.81 3.6 1.8V12.6C3.6 13.0774 3.78964 13.5352 4.12721 13.8728C4.46477 14.2104 4.92261 14.4 5.4 14.4H16.2C17.199 14.4 18 13.599 18 12.6V1.8C18 1.32261 17.8104 0.864773 17.4728 0.527208C17.1352 0.189642 16.6774 0 16.2 0ZM16.2 12.6H5.4V1.8H16.2V12.6Z"/>
</svg>
