<svg width="16" height="16" viewBox="0 0 16 16" fill="none" xmlns="http://www.w3.org/2000/svg">
<path fill-rule="evenodd" clip-rule="evenodd" d="M1.12132 13.4351C0.730792 13.8256 0.730792 14.4588 1.12132 14.8493C1.51184 15.2399 2.14501 15.2399 2.53553 14.8493L7.91405 9.47081L13.435 14.9918C13.8256 15.3823 14.4587 15.3823 14.8492 14.9918C15.2398 14.6013 15.2398 13.9681 14.8492 13.5776L9.32827 8.0566L15.2635 2.12141C15.654 1.73089 15.654 1.09772 15.2635 0.7072C14.8729 0.316675 14.2398 0.316676 13.8492 0.7072L7.91405 6.64239L2.12132 0.849655C1.7308 0.459131 1.09763 0.459131 0.707108 0.849655C0.316584 1.24018 0.316584 1.87334 0.707108 2.26387L6.49984 8.0566L1.12132 13.4351Z" fill="url(#paint0_linear)"/>
<defs>
<linearGradient id="paint0_linear" x1="-6.48255" y1="33.1485" x2="29.1166" y2="32.8442" gradientUnits="userSpaceOnUse">
<stop stop-color="#24B04B"/>
<stop offset="1" stop-color="#0263BC"/>
</linearGradient>
</defs>
</svg>
