<svg width="12" height="10" viewBox="0 0 12 10" fill="none" xmlns="http://www.w3.org/2000/svg">
<path fill-rule="evenodd" clip-rule="evenodd" d="M0 1C0 0.447715 0.447715 0 1 0H11C11.5523 0 12 0.447715 12 1C12 1.55228 11.5523 2 11 2H1C0.447715 2 0 1.55228 0 1ZM0 5C0 4.44772 0.447715 4 1 4H11C11.5523 4 12 4.44772 12 5C12 5.55228 11.5523 6 11 6H1C0.447715 6 0 5.55228 0 5ZM1 8C0.447715 8 0 8.44771 0 9C0 9.55229 0.447715 10 1 10H11C11.5523 10 12 9.55229 12 9C12 8.44771 11.5523 8 11 8H1Z" fill="#011949"/>
</svg>
