<svg width="20" height="20" viewBox="0 0 20 20" fill="none" xmlns="http://www.w3.org/2000/svg">
<path fill-rule="evenodd" clip-rule="evenodd" d="M2 6C2 5.44772 2.44772 5 3 5H17C17.5523 5 18 5.44772 18 6C18 6.55228 17.5523 7 17 7H3C2.44772 7 2 6.55228 2 6ZM6 10C6 9.44772 6.44772 9 7 9H17C17.5523 9 18 9.44772 18 10C18 10.5523 17.5523 11 17 11H7C6.44771 11 6 10.5523 6 10ZM3 13C2.44772 13 2 13.4477 2 14C2 14.5523 2.44772 15 3 15H17C17.5523 15 18 14.5523 18 14C18 13.4477 17.5523 13 17 13H3Z" fill="#011949"/>
<path d="M2.35355 10.3536C2.15829 10.1583 2.15829 9.84171 2.35355 9.64645L4.14645 7.85355C4.46143 7.53857 5 7.76165 5 8.20711L5 11.7929C5 12.2383 4.46143 12.4614 4.14645 12.1464L2.35355 10.3536Z" fill="#011949"/>
</svg>
