<svg width="20" height="20" viewBox="0 0 20 20" fill="none" xmlns="http://www.w3.org/2000/svg">
<path fill-rule="evenodd" clip-rule="evenodd" d="M18 6C18 5.44772 17.5523 5 17 5H3C2.44771 5 2 5.44772 2 6C2 6.55228 2.44771 7 3 7H17C17.5523 7 18 6.55228 18 6ZM14 10C14 9.44772 13.5523 9 13 9H3C2.44771 9 2 9.44772 2 10C2 10.5523 2.44772 11 3 11H13C13.5523 11 14 10.5523 14 10ZM17 13C17.5523 13 18 13.4477 18 14C18 14.5523 17.5523 15 17 15H3C2.44771 15 2 14.5523 2 14C2 13.4477 2.44771 13 3 13H17Z" fill="#011949"/>
<path d="M17.6464 10.3536C17.8417 10.1583 17.8417 9.84171 17.6464 9.64645L15.8536 7.85355C15.5386 7.53857 15 7.76165 15 8.20711L15 11.7929C15 12.2383 15.5386 12.4614 15.8536 12.1464L17.6464 10.3536Z" fill="#011949"/>
</svg>
