<svg width="20" height="20" viewBox="0 0 19 19" fill="none" xmlns="http://www.w3.org/2000/svg">
<path d="M6.1732 7.6287L8.28 9.74523V0.920229C8.28 0.676169 8.37693 0.442106 8.54946 0.269529C8.72199 0.0969529 8.956 -1.86265e-09 9.2 -1.86265e-09C9.444 -1.86265e-09 9.678 0.0969529 9.85054 0.269529C10.0231 0.442106 10.12 0.676169 10.12 0.920229V9.74523L12.2268 7.6287C12.3123 7.54245 12.4141 7.47399 12.5262 7.42727C12.6383 7.38055 12.7585 7.3565 12.88 7.3565C13.0015 7.3565 13.1217 7.38055 13.2338 7.42727C13.3459 7.47399 13.4477 7.54245 13.5332 7.6287C13.6194 7.71425 13.6879 7.81603 13.7346 7.92816C13.7813 8.0403 13.8053 8.16058 13.8053 8.28206C13.8053 8.40354 13.7813 8.52382 13.7346 8.63596C13.6879 8.7481 13.6194 8.84988 13.5332 8.93543L9.8532 12.6163C9.7657 12.7001 9.66253 12.7658 9.5496 12.8096C9.32561 12.9016 9.07438 12.9016 8.8504 12.8096C8.73747 12.7658 8.6343 12.7001 8.5468 12.6163L4.8668 8.93543C4.78102 8.84963 4.71298 8.74777 4.66655 8.63566C4.62013 8.52356 4.59624 8.4034 4.59624 8.28206C4.59624 8.16072 4.62013 8.04057 4.66655 7.92847C4.71298 7.81636 4.78102 7.7145 4.8668 7.6287C4.95258 7.5429 5.05441 7.47484 5.16649 7.4284C5.27857 7.38197 5.39869 7.35807 5.52 7.35807C5.64131 7.35807 5.76143 7.38197 5.87351 7.4284C5.98559 7.47484 6.08742 7.5429 6.1732 7.6287ZM17.48 9.1977C17.236 9.1977 17.002 9.29466 16.8295 9.46723C16.6569 9.63981 16.56 9.87387 16.56 10.1179V15.6393C16.56 15.8834 16.4631 16.1174 16.2905 16.29C16.118 16.4626 15.884 16.5595 15.64 16.5595H2.76C2.516 16.5595 2.282 16.4626 2.10946 16.29C1.93693 16.1174 1.84 15.8834 1.84 15.6393V10.1179C1.84 9.87387 1.74307 9.63981 1.57054 9.46723C1.398 9.29466 1.164 9.1977 0.92 9.1977C0.676001 9.1977 0.441995 9.29466 0.269462 9.46723C0.0969282 9.63981 0 9.87387 0 10.1179V15.6393C0 16.3715 0.290785 17.0737 0.808385 17.5914C1.32599 18.1091 2.028 18.4 2.76 18.4H15.64C16.372 18.4 17.074 18.1091 17.5916 17.5914C18.1092 17.0737 18.4 16.3715 18.4 15.6393V10.1179C18.4 9.87387 18.3031 9.63981 18.1305 9.46723C17.958 9.29466 17.724 9.1977 17.48 9.1977Z" />
<linearGradient id="paint0_linear" x1="-5.83203" y1="40.6235" x2="29.4338" y2="40.3768" gradientUnits="userSpaceOnUse">
<stop stop-color="#24B04B"/>
<stop offset="1" stop-color="#0263BC"/>
</linearGradient>
</svg>
