<svg width="19" height="12" viewBox="0 0 19 12" fill="none" xmlns="http://www.w3.org/2000/svg">
<path opacity="0.5" fill-rule="evenodd" clip-rule="evenodd" d="M0 1C0 0.447715 0.447715 0 1 0H18C18.5523 0 19 0.447715 19 1C19 1.55228 18.5523 2 18 2H1C0.447715 2 0 1.55228 0 1ZM0 6C0 5.44772 0.447715 5 1 5H18C18.5523 5 19 5.44772 19 6C19 6.55228 18.5523 7 18 7H1C0.447715 7 0 6.55228 0 6ZM1 10C0.447715 10 0 10.4477 0 11C0 11.5523 0.447715 12 1 12H18C18.5523 12 19 11.5523 19 11C19 10.4477 18.5523 10 18 10H1Z" fill="#011949"/>
</svg>
