<svg width="16" height="10" viewBox="0 0 16 10" fill="none" xmlns="http://www.w3.org/2000/svg">
<path fill-rule="evenodd" clip-rule="evenodd" d="M7 1C7 0.447715 7.44772 0 8 0H15C15.5523 0 16 0.447715 16 1C16 1.55228 15.5523 2 15 2H8C7.44772 2 7 1.55228 7 1ZM0 5C0 4.44772 0.447715 4 1 4H15C15.5523 4 16 4.44772 16 5C16 5.55228 15.5523 6 15 6H1C0.447715 6 0 5.55228 0 5ZM5 8C4.44772 8 4 8.44771 4 9C4 9.55228 4.44771 10 5 10H15C15.5523 10 16 9.55228 16 9C16 8.44771 15.5523 8 15 8H5Z" fill="#011949"/>
</svg>
