<svg width="16" height="10" viewBox="0 0 16 10" fill="none" xmlns="http://www.w3.org/2000/svg">
<path fill-rule="evenodd" clip-rule="evenodd" d="M0 1C0 0.447715 0.447715 0 1 0H8C8.55229 0 9 0.447715 9 1C9 1.55228 8.55229 2 8 2H1C0.447715 2 0 1.55228 0 1ZM0 5C0 4.44772 0.447715 4 1 4H15C15.5523 4 16 4.44772 16 5C16 5.55228 15.5523 6 15 6H1C0.447715 6 0 5.55228 0 5ZM1 8C0.447715 8 0 8.44771 0 9C0 9.55229 0.447715 10 1 10H11C11.5523 10 12 9.55229 12 9C12 8.44771 11.5523 8 11 8H1Z" fill="#011949"/>
</svg>
