<svg width="9" height="7" viewBox="0 0 9 7" fill="none" xmlns="http://www.w3.org/2000/svg">
<path d="M8.17561 1.16185C8.12214 1.11057 8.05853 1.06986 7.98843 1.04208C7.91834 1.0143 7.84317 1 7.76724 1C7.69131 1 7.61613 1.0143 7.54604 1.04208C7.47595 1.06986 7.41233 1.11057 7.35886 1.16185L3.0738 5.24377L1.2735 3.52564C1.21799 3.47462 1.15245 3.43451 1.08064 3.40759C1.00882 3.38066 0.932138 3.36746 0.854961 3.36873C0.777783 3.37 0.701625 3.38572 0.630833 3.41499C0.560041 3.44426 0.496003 3.48651 0.442374 3.53932C0.388746 3.59214 0.346578 3.65448 0.318277 3.7228C0.289976 3.79112 0.276096 3.86407 0.277432 3.93749C0.278767 4.01091 0.29529 4.08336 0.326059 4.1507C0.356827 4.21805 0.401237 4.27897 0.456754 4.32999L2.66543 6.43113C2.7189 6.48242 2.78251 6.52313 2.8526 6.55091C2.92269 6.57868 2.99787 6.59299 3.0738 6.59299C3.14973 6.59299 3.22491 6.57868 3.295 6.55091C3.36509 6.52313 3.42871 6.48242 3.48218 6.43113L8.17561 1.9662C8.23399 1.91496 8.28059 1.85277 8.31246 1.78356C8.34433 1.71434 8.36078 1.63959 8.36078 1.56403C8.36078 1.48846 8.34433 1.41371 8.31246 1.3445C8.28059 1.27528 8.23399 1.21309 8.17561 1.16185Z" fill="white" stroke="white" stroke-width="0.348201"/>
</svg>
