<svg width="18" height="18" viewBox="0 0 18 18" fill="none" xmlns="http://www.w3.org/2000/svg">
    <path d="M9 0C4.0293 0 0 4.0293 0 9C0 13.9707 4.0293 18 9 18C13.9707 18 18 13.9707 18 9C18 4.0293 13.9707 0 9 0ZM15.2262 5.4H12.3327C12.1981 4.38734 12.0285 3.37963 11.8242 2.3787C13.2533 2.99424 14.4462 4.05363 15.2262 5.4ZM9.9126 1.8648C9.9738 2.1816 10.2609 3.699 10.4931 5.4H7.5051C7.7391 3.699 8.0253 2.1816 8.0865 1.8648C8.388 1.827 8.6904 1.8 9 1.8C9.3096 1.8 9.612 1.827 9.9126 1.8648ZM10.8 9C10.8 9.5382 10.7613 10.1574 10.701 10.8H7.299C7.2387 10.1574 7.2 9.5382 7.2 9C7.2 8.4618 7.2387 7.8426 7.299 7.2H10.701C10.7613 7.8426 10.8 8.4618 10.8 9ZM6.1758 2.3787C5.9715 3.37963 5.8019 4.38734 5.6673 5.4H2.7738C3.55384 4.05363 4.74671 2.99424 6.1758 2.3787ZM2.0358 7.2H5.4756C5.4306 7.8012 5.4 8.4096 5.4 9C5.4 9.5904 5.4297 10.1988 5.4765 10.8H2.0367C1.8873 10.224 1.8 9.6228 1.8 9C1.8 8.3772 1.8882 7.776 2.0367 7.2H2.0358ZM2.7738 12.6H5.6673C5.8365 13.8816 6.0453 14.985 6.1758 15.6213C4.74671 15.0058 3.55384 13.9464 2.7738 12.6ZM8.0874 16.1352C7.86358 14.962 7.67001 13.7832 7.5069 12.6H10.4949C10.3303 13.783 10.1365 14.9618 9.9135 16.1352C9.6138 16.1739 9.3105 16.2 9.0009 16.2C8.6913 16.2 8.3889 16.173 8.0883 16.1352H8.0874ZM11.8242 15.6222C12.0284 14.6209 12.198 13.6129 12.3327 12.6H15.2262C14.4462 13.9464 13.2533 15.0058 11.8242 15.6213V15.6222ZM15.9642 10.8H12.5244C12.5694 10.1988 12.6 9.5904 12.6 9C12.6 8.4096 12.5703 7.8012 12.5235 7.2H15.9615C16.1118 7.776 16.2 8.3772 16.2 9C16.2 9.6228 16.1127 10.224 15.9633 10.8H15.9642Z"/>
</svg>
