<svg width="18" height="18" viewBox="0 0 20 20" fill="none" xmlns="http://www.w3.org/2000/svg">
<path fill-rule="evenodd" clip-rule="evenodd" d="M2.1875 1.875C2.10462 1.875 2.02513 1.90792 1.96653 1.96653C1.90792 2.02513 1.875 2.10462 1.875 2.1875V14.0625C1.875 14.235 2.015 14.375 2.1875 14.375H4.6875C4.93614 14.375 5.1746 14.4738 5.35041 14.6496C5.52623 14.8254 5.625 15.0639 5.625 15.3125V18.05L9.025 14.65C9.20065 14.4741 9.43894 14.3752 9.6875 14.375H17.8125C17.8954 14.375 17.9749 14.3421 18.0335 14.2835C18.0921 14.2249 18.125 14.1454 18.125 14.0625V2.1875C18.125 2.10462 18.0921 2.02513 18.0335 1.96653C17.9749 1.90792 17.8954 1.875 17.8125 1.875H2.1875V1.875ZM0 2.1875C0 0.98 0.98 0 2.1875 0H17.8125C19.02 0 20 0.98 20 2.1875V14.0625C20 14.6427 19.7695 15.1991 19.3593 15.6093C18.9491 16.0195 18.3927 16.25 17.8125 16.25H10.075L6.85875 19.4662C6.60405 19.7208 6.27959 19.8942 5.92638 19.9644C5.57318 20.0346 5.20709 19.9986 4.87437 19.8608C4.54166 19.723 4.25727 19.4896 4.05714 19.1902C3.85701 18.8909 3.75013 18.5389 3.75 18.1788V16.25H2.1875C1.60734 16.25 1.05094 16.0195 0.640704 15.6093C0.230468 15.1991 0 14.6427 0 14.0625L0 2.1875ZM11.25 11.25C11.25 11.5815 11.1183 11.8995 10.8839 12.1339C10.6495 12.3683 10.3315 12.5 10 12.5C9.66848 12.5 9.35054 12.3683 9.11612 12.1339C8.8817 11.8995 8.75 11.5815 8.75 11.25C8.75 10.9185 8.8817 10.6005 9.11612 10.3661C9.35054 10.1317 9.66848 10 10 10C10.3315 10 10.6495 10.1317 10.8839 10.3661C11.1183 10.6005 11.25 10.9185 11.25 11.25V11.25ZM10.9375 4.6875C10.9375 4.43886 10.8387 4.2004 10.6629 4.02459C10.4871 3.84877 10.2486 3.75 10 3.75C9.75136 3.75 9.5129 3.84877 9.33709 4.02459C9.16127 4.2004 9.0625 4.43886 9.0625 4.6875V7.8125C9.0625 8.06114 9.16127 8.2996 9.33709 8.47541C9.5129 8.65123 9.75136 8.75 10 8.75C10.2486 8.75 10.4871 8.65123 10.6629 8.47541C10.8387 8.2996 10.9375 8.06114 10.9375 7.8125V4.6875Z"/>
</svg>
