<svg width="20" height="21" viewBox="0 0 20 21" fill="none" xmlns="http://www.w3.org/2000/svg">
<path d="M6.71 5.96433L9 3.55979V13.5857C9 13.863 9.10536 14.1289 9.29289 14.3249C9.48043 14.521 9.73478 
14.6312 10 14.6312C10.2652 14.6312 10.5196 14.521 10.7071 14.3249C10.8946 14.1289 11 13.863 11 
13.5857V3.55979L13.29 5.96433C13.383 6.06232 13.4936 6.1401 13.6154 6.19317C13.7373 6.24625 
13.868 6.27358 14 6.27358C14.132 6.27358 14.2627 6.24625 14.3846 6.19317C14.5064 
6.1401 14.617 6.06232 14.71 5.96433C14.8037 5.86714 14.8781 5.75152 14.9289 
5.62412C14.9797 5.49672 15.0058 5.36007 15.0058 5.22206C15.0058 5.08405 
14.9797 4.9474 14.9289 4.82C14.8781 4.6926 14.8037 4.57698 14.71 4.47979L10.71 0.297969C10.6149 
0.20279 10.5028 0.128181 10.38 0.0784232C10.1365 -0.0261411 9.86346 -0.0261411 9.62 0.0784232C9.49725 
0.128181 9.3851 0.20279 9.29 0.297969L5.29 4.47979C5.19676 4.57726 5.1228 4.69299 5.07234 4.82034C5.02188 
4.9477 4.99591 5.08421 4.99591 5.22206C4.99591 5.35991 5.02188 5.49642 5.07234 5.62378C5.1228 5.75113 
5.19676 5.86686 5.29 5.96433C5.38324 6.06181 5.49393 6.13913 5.61575 6.19189C5.73757 6.24464 5.86814 
6.27179 6 6.27179C6.13186 6.27179 6.26243 6.24464 6.38425 6.19189C6.50607 6.13913 6.61676 6.06181 
6.71 5.96433ZM19 10.4493C18.7348 10.4493 18.4804 10.5595 18.2929 10.7555C18.1054 10.9516 18 11.2175 
18 11.4948V17.7675C18 18.0448 17.8946 18.3107 17.7071 18.5068C17.5196 18.7028 17.2652 18.813 17 
18.813H3C2.73478 18.813 2.48043 18.7028 2.29289 18.5068C2.10536 18.3107 2 18.0448 2 17.7675V11.4948C2 
11.2175 1.89464 10.9516 1.70711 10.7555C1.51957 10.5595 1.26522 10.4493 1 10.4493C0.734784 10.4493 
0.48043 10.5595 0.292893 10.7555C0.105357 10.9516 0 11.2175 0 11.4948V17.7675C0 18.5993 0.316071 19.3971 
0.87868 19.9853C1.44129 20.5734 2.20435 20.9039 3 20.9039H17C17.7956 20.9039 18.5587 20.5734 19.1213 
19.9853C19.6839 19.3971 20 18.5993 20 17.7675V11.4948C20 11.2175 19.8946 10.9516 19.7071 10.7555C19.5196 
10.5595 19.2652 10.4493 19 10.4493Z"/>
<defs>
<linearGradient id="paint0_linear" x1="-9.10937" y1="46.0158" x2="37.9111" y2="45.6381" gradientUnits="userSpaceOnUse">
<stop stop-color="#24B04B"/>
<stop offset="1" stop-color="#0263BC"/>
</linearGradient>
</defs>
</svg>
