<svg width="17" height="20" viewBox="0 0 17 20" fill="none" xmlns="http://www.w3.org/2000/svg">
<path d="M4.75 5V13C4.75 13.5304 4.94754 14.0391 5.29918 14.4142C5.65081 14.7893 6.12772 15 6.625 15H12.25M4.75 5V3C4.75 2.46957 4.94754 1.96086 5.29918 1.58579C5.65081 1.21071 6.12772 1 6.625 1H10.9244C11.173 1.00006 11.4114 1.10545 11.5872 1.293L15.7253 5.707C15.9011 5.89449 15.9999 6.1488 16 6.414V13C16 13.5304 15.8025 14.0391 15.4508 14.4142C15.0992 14.7893 14.6223 15 14.125 15H12.25M4.75 5H2.875C2.37772 5 1.90081 5.21071 1.54917 5.58579C1.19754 5.96086 1 6.46957 1 7V17C1 17.5304 1.19754 18.0391 1.54917 18.4142C1.90081 18.7893 2.37772 19 2.875 19H10.375C10.8723 19 11.3492 18.7893 11.7008 18.4142C12.0525 18.0391 12.25 17.5304 12.25 17V15" stroke="" stroke-width="2" stroke-linecap="round" stroke-linejoin="round"/>
<defs>
<linearGradient id="paint0_linear" x1="-5.83203" y1="40.6235" x2="29.4338" y2="40.3768" gradientUnits="userSpaceOnUse">
<stop stop-color="#24B04B"/>
<stop offset="1" stop-color="#0263BC"/>
</linearGradient>
</defs>
</svg>
