<svg width="17" height="10" viewBox="0 0 17 10" fill="none" xmlns="http://www.w3.org/2000/svg">
<path fill-rule="evenodd" clip-rule="evenodd" d="M3 1C3 0.447715 3.44772 0 4 0H13C13.5523 0 14 0.447715 14 1C14 1.55228 13.5523 2 13 2H4C3.44772 2 3 1.55228 3 1ZM0 5C0 4.44772 0.447715 4 1 4H16C16.5523 4 17 4.44772 17 5C17 5.55228 16.5523 6 16 6H1C0.447715 6 0 5.55228 0 5ZM3 8C2.44772 8 2 8.44771 2 9C2 9.55229 2.44772 10 3 10H14C14.5523 10 15 9.55229 15 9C15 8.44771 14.5523 8 14 8H3Z" fill="#011949"/>
</svg>
