<svg width="22" height="24" viewBox="0 0 22 24" fill="none" xmlns="http://www.w3.org/2000/svg">
<path opacity="0.4" d="M3.70045 15.2867C3.78262 15.4231 3.86479 15.5594 3.97435 15.6958C4.08391 15.8322 4.16609 15.9686 4.30304 16.1049C4.4126 16.2413 4.54955 16.3777 4.65911 16.5141C4.79607 16.6505 4.93302 16.7868 5.06997 16.9505C5.20692 17.0869 5.34387 17.2232 5.50822 17.3869C5.67256 17.5233 5.80951 17.6869 5.97385 17.8233C6.1382 17.9597 6.30254 18.096 6.46688 18.2597C6.63123 18.3961 6.79557 18.5325 6.9873 18.6688C7.17903 18.8052 7.34338 18.9416 7.53511 19.078C7.72684 19.2143 7.91858 19.3507 8.08292 19.4598C8.27465 19.5962 8.46638 19.7053 8.65812 19.8417C8.82246 19.9508 9.01419 20.0599 9.20593 20.1963C9.37027 20.3054 9.562 20.4145 9.78113 20.5236C9.97286 20.6327 10.1646 20.7418 10.3563 20.8509C10.5754 20.96 10.7672 21.0691 10.9589 21.1782L10.9863 21.2054L11.0137 21.1782C11.2054 21.0691 11.4246 20.96 11.6163 20.8509C11.808 20.7418 12.0271 20.6327 12.1915 20.5236C12.3832 20.4145 12.575 20.3054 12.7667 20.1963C12.9584 20.0872 13.1501 19.9508 13.3419 19.8417C13.5336 19.7053 13.7253 19.5962 13.9171 19.4598C14.1088 19.3234 14.3005 19.2143 14.4649 19.078C14.6566 18.9416 14.821 18.8052 15.0127 18.6688C15.177 18.5325 15.3688 18.3961 15.5331 18.2597C15.7249 18.1233 15.8892 17.9597 16.0261 17.8233C16.1905 17.6869 16.3548 17.5233 16.4918 17.3869C16.6561 17.2505 16.7931 17.0869 16.93 16.9505C17.067 16.8141 17.2039 16.6777 17.3409 16.5141C17.4778 16.3777 17.5874 16.2413 17.697 16.1049C17.8065 15.9686 17.9161 15.8322 18.0256 15.6958C18.1352 15.5594 18.2174 15.4231 18.2996 15.2867C18.3817 15.1503 18.4639 15.0139 18.5187 14.9048C18.5735 14.823 18.6008 14.7412 18.6556 14.6593C18.683 14.5775 18.7378 14.4957 18.7652 14.4411C18.7926 14.3593 18.82 14.3048 18.8474 14.2229C18.8748 14.1684 18.8748 14.0866 18.9021 14.032C18.9295 13.8956 18.9295 13.7593 18.9569 13.6229C18.9569 13.4865 18.9569 13.3501 18.9569 13.1865V13.1047V13.0774C18.9569 12.9956 18.9569 12.941 18.9569 12.9137C18.9569 12.8592 18.9569 12.8046 18.9569 12.7501V12.6955H16.2179C15.2044 15.2321 13.4788 17.3869 10.9863 19.4871C8.52117 17.3869 6.76818 15.2321 5.75473 12.6955H3.07047H2.90613H1.92007H1.75573H0.961404H0.797062V12.5319V5.19479V4.89476V4.78566V4.70384L0.851843 4.67656L0.934014 4.59473L1.15314 4.40381C1.48182 4.0765 1.8379 3.77647 2.19397 3.47644C2.55005 3.17641 2.93352 2.90366 3.31698 2.65818C3.70045 2.4127 4.1113 2.16723 4.49477 1.94902C4.90563 1.73082 5.31648 1.53989 5.72734 1.37624C6.1382 1.21259 6.57644 1.04894 7.01469 0.912558C7.45294 0.776181 7.91858 0.66708 8.35682 0.585254C8.79507 0.503428 9.26071 0.421602 9.69895 0.394326C10.1372 0.339775 10.6028 0.3125 11.0411 0.3125C11.4793 0.3125 11.945 0.339775 12.3832 0.367051C12.8489 0.421602 13.2871 0.503428 13.7253 0.585254C14.1636 0.66708 14.6018 0.776181 15.0401 0.912558C15.4783 1.04894 15.9166 1.18531 16.3274 1.37624C16.7383 1.53989 17.1492 1.73082 17.56 1.94902C17.9709 2.16723 18.3543 2.38543 18.7378 2.65818C19.1213 2.90366 19.5047 3.17641 19.8608 3.47644C20.2169 3.77647 20.573 4.0765 20.9016 4.40381L21.1208 4.62201L21.2029 4.70384L21.2577 4.75839V4.84021V4.94931V5.24934V8.65877V8.76787H21.0934H19.1487H18.9843V8.60422V5.71303V5.68575L18.9569 5.65847C18.683 5.413 18.4091 5.19479 18.1078 4.97659C17.8065 4.75839 17.5326 4.56746 17.2313 4.37653C16.93 4.1856 16.6013 4.02195 16.3 3.8583C15.9714 3.69465 15.6701 3.55827 15.3414 3.42189C14.9853 3.28552 14.6566 3.17641 14.3005 3.06731C13.9445 2.95821 13.5884 2.87639 13.2323 2.79456C12.8762 2.71273 12.4928 2.68546 12.1367 2.63091C11.7806 2.60363 11.3972 2.57636 11.0411 2.57636C10.685 2.57636 10.3015 2.60363 9.94547 2.63091C9.58939 2.65818 9.20593 2.71273 8.84985 2.79456C8.49377 2.87639 8.1377 2.95821 7.78162 3.06731C7.42555 3.17641 7.06947 3.28552 6.74079 3.42189C6.4121 3.55827 6.08342 3.69465 5.78212 3.8583C5.48083 4.02195 5.15214 4.1856 4.85085 4.37653C4.54955 4.56746 4.24826 4.75839 3.97435 4.97659C3.70045 5.19479 3.39915 5.413 3.12525 5.65847L3.09786 5.68575V5.71303V10.3771H5.15214C4.87824 9.09517 4.74128 7.70413 4.76868 6.17671C9.09636 4.78566 13.0406 4.78566 17.3683 6.17671C17.3957 7.70413 17.2587 9.09517 16.9848 10.3771H19.0391H19.2034H21.1482H21.3125V10.5408V12.6955C21.3125 13.732 21.3125 14.2502 21.2303 14.6593C21.1482 15.0958 20.9838 15.3685 20.6825 15.914L20.6551 15.9686C20.573 16.1322 20.4634 16.2959 20.3538 16.4595C20.2443 16.6232 20.1347 16.7868 19.9978 16.9505C19.8882 17.1141 19.7512 17.2778 19.6143 17.4687C19.4773 17.6324 19.3404 17.8233 19.176 17.9869C19.0391 18.1506 18.8748 18.3143 18.7104 18.5052C18.5461 18.6688 18.3817 18.8325 18.19 18.9961C18.0256 19.1598 17.8339 19.3234 17.6422 19.4871C17.4504 19.6507 17.2587 19.8144 17.067 19.978C16.8752 20.1417 16.6835 20.2781 16.4644 20.4417C16.2727 20.6054 16.0535 20.7418 15.8344 20.9054C15.6153 21.0418 15.3962 21.2054 15.177 21.3691C14.9579 21.5055 14.7388 21.6691 14.4923 21.8055C14.2732 21.9419 14.0266 22.1055 13.7801 22.2419C13.561 22.3783 13.3145 22.5147 13.0406 22.651C12.7941 22.7874 12.5476 22.9238 12.2737 23.0602C12.0271 23.1965 11.7532 23.3329 11.5067 23.442L11.178 23.6057L11.0685 23.6602L10.9863 23.6875L10.9041 23.6602L10.7946 23.6057L10.4659 23.442C10.192 23.3056 9.94547 23.1965 9.69895 23.0602C9.45244 22.9238 9.17854 22.7874 8.93202 22.651C8.68551 22.5147 8.43899 22.3783 8.19248 22.2419C7.94597 22.1055 7.72684 21.9692 7.48033 21.8055C7.23381 21.6691 7.01469 21.5055 6.79557 21.3691C6.57644 21.2054 6.35732 21.0691 6.1382 20.9054C5.91907 20.7418 5.72734 20.6054 5.50822 20.4417C5.28909 20.2781 5.09736 20.1144 4.90563 19.978C4.71389 19.8144 4.52216 19.6507 4.33043 19.4871C4.1387 19.3234 3.94696 19.1598 3.78262 18.9961C3.61828 18.8325 3.42654 18.6688 3.2622 18.5052C3.09786 18.3415 2.93352 18.1506 2.79656 17.9869C2.63222 17.8233 2.49527 17.6324 2.35832 17.4687C2.22136 17.3051 2.08441 17.1414 1.97485 16.9505C1.86529 16.7868 1.72834 16.6232 1.61877 16.4595C1.50921 16.2959 1.39965 16.1322 1.31748 15.9686L1.29009 15.914C1.12575 15.5867 0.988795 15.3685 0.906624 15.1503C0.824452 14.9321 0.742281 14.7139 0.71489 14.4139L0.6875 14.2229H0.879233H2.90613H3.01569L3.07047 14.332V14.3593V14.3866C3.09786 14.4684 3.12525 14.523 3.18003 14.6048C3.20742 14.6866 3.2622 14.7685 3.31698 14.8503C3.53611 15.0139 3.59089 15.1503 3.70045 15.2867ZM15.1223 7.67685C12.6023 7.02224 9.50722 6.99497 6.95991 7.67685C7.06947 11.0863 8.60334 14.332 11.0411 16.705C13.4788 14.3048 15.0127 11.0863 15.1223 7.67685Z" fill="#011949"/>
</svg>
