<svg width="17" height="16" viewBox="0 0 17 16" fill="none" xmlns="http://www.w3.org/2000/svg">
<path opacity="0.75" d="M14.7311 6.14262C14.8098 6.40729 15.0882 6.558 15.3529 6.47923C15.6176 6.40046 15.7683 6.12204 15.6895 5.85738L14.7311 6.14262ZM15.2103 10L15.6938 9.87272C15.6545 9.72356 15.5486 9.60087 15.4068 9.54024C15.265 9.47962 15.1031 9.48784 14.9682 9.56253L15.2103 10ZM1.79004 6L1.30652 6.12733C1.3458 6.27648 1.45172 6.39916 1.59354 6.45977C1.73537 6.52038 1.89723 6.51215 2.03218 6.43746L1.79004 6ZM2.26927 9.85738C2.1905 9.59271 1.91208 9.44201 1.64741 9.52077C1.38274 9.59954 1.23204 9.87796 1.31081 10.1426L2.26927 9.85738ZM1.48351 2.87267C1.41319 2.60563 1.13971 2.44616 0.872668 2.51649C0.60563 2.58681 0.446162 2.86029 0.516485 3.12733L1.48351 2.87267ZM4.74214 4.93746C4.98374 4.80373 5.07119 4.49946 4.93746 4.25786C4.80373 4.01626 4.49946 3.92881 4.25786 4.06254L4.74214 4.93746ZM12.2579 11.0625C12.0163 11.1962 11.9288 11.5005 12.0625 11.7421C12.1962 11.9837 12.5005 12.0712 12.7421 11.9375L12.2579 11.0625ZM15.5165 13.1273C15.5868 13.3943 15.8602 13.5538 16.1273 13.4835C16.3943 13.4132 16.5538 13.1398 16.4835 12.8727L15.5165 13.1273ZM8.50016 1.5C11.4439 1.5 13.9319 3.45732 14.7311 6.14262L15.6895 5.85738C14.7676 2.75971 11.8984 0.5 8.50016 0.5V1.5ZM14.7311 9.85738C13.9319 12.5427 11.4439 14.5 8.50016 14.5V15.5C11.8984 15.5 14.7676 13.2403 15.6895 10.1426L14.7311 9.85738ZM2.26927 6.14262C3.06845 3.45732 5.55638 1.5 8.50016 1.5V0.5C5.1019 0.5 2.23272 2.75971 1.31081 5.85738L2.26927 6.14262ZM8.50016 14.5C5.55638 14.5 3.06845 12.5427 2.26927 9.85738L1.31081 10.1426C2.23272 13.2403 5.1019 15.5 8.50016 15.5V14.5ZM2.27355 5.87267L1.48351 2.87267L0.516485 3.12733L1.30652 6.12733L2.27355 5.87267ZM2.03218 6.43746L4.74214 4.93746L4.25786 4.06254L1.5479 5.56254L2.03218 6.43746ZM14.9682 9.56253L12.2579 11.0625L12.7421 11.9375L15.4524 10.4375L14.9682 9.56253ZM14.7268 10.1273L15.5165 13.1273L16.4835 12.8727L15.6938 9.87272L14.7268 10.1273Z" fill="#011949"/>
</svg>
