<svg width="55" height="15" viewBox="0 0 55 15" fill="none" xmlns="http://www.w3.org/2000/svg">
<path d="M8.38763 0.369443C8.50478 0.485551 8.59778 0.623688 8.66124 0.775886C8.7247 0.928085 8.75737 1.09133 8.75737 1.25621C8.75737 1.42109 8.7247 1.58434 8.66124 1.73654C8.59778 1.88873 8.50478 2.02687 8.38763 2.14298L4.26271 6.25209L53.75 6.2521C54.0815 6.2521 54.3995 6.38368 54.6339 6.61791C54.8683 6.85214 55 7.16982 55 7.50106C55 7.83231 54.8683 8.14999 54.6339 8.38422C54.3995 8.61845 54.0815 8.75003 53.75 8.75003L4.26271 8.75003L8.38763 12.8591C8.623 13.0943 8.75523 13.4133 8.75523 13.7459C8.75523 14.0785 8.623 14.3975 8.38763 14.6327C8.15225 14.8679 7.83302 15 7.50014 15C7.16727 15 6.84804 14.8679 6.61266 14.6327L0.362786 8.38783C0.248986 8.26905 0.159779 8.12898 0.100289 7.97567C0.0341571 7.82617 3.20644e-07 7.66452 3.27789e-07 7.50106C3.34934e-07 7.33761 0.0341571 7.17596 0.100289 7.02645C0.159779 6.87314 0.248986 6.73308 0.362786 6.61429L6.61266 0.369443C6.72887 0.252378 6.86711 0.159461 7.01943 0.096052C7.17175 0.0326431 7.33513 -1.12982e-06 7.50015 -1.12261e-06C7.66516 -1.1154e-06 7.82854 0.0326432 7.98086 0.096052C8.13318 0.159461 8.27142 0.252378 8.38763 0.369443Z" fill=""/>
</svg>
