<svg width="20" height="20" viewBox="0 0 20 20" fill="none" xmlns="http://www.w3.org/2000/svg">
<path fill-rule="evenodd" clip-rule="evenodd" d="M6 6C6 5.44772 6.44772 5 7 5H17C17.5523 5 18 5.44772 18 6C18 6.55228 17.5523 7 17 7H7C6.44772 7 6 6.55228 6 6ZM6 10C6 9.44772 6.44772 9 7 9H17C17.5523 9 18 9.44772 18 10C18 10.5523 17.5523 11 17 11H7C6.44772 11 6 10.5523 6 10ZM7 13C6.44772 13 6 13.4477 6 14C6 14.5523 6.44772 15 7 15H17C17.5523 15 18 14.5523 18 14C18 13.4477 17.5523 13 17 13H7Z" fill="#011949"/>
<path d="M3.45605 4.9V7H2.74805V5.434H2.38805V4.9H3.45605Z" fill="#011949"/>
<path d="M3.8544 10.451V11H2.1714V10.565L2.9304 9.863C2.9964 9.801 3.0404 9.748 3.0624 9.704C3.0844 9.66 3.0954 9.617 3.0954 9.575C3.0954 9.523 3.0774 9.483 3.0414 9.455C3.0074 9.425 2.9574 9.41 2.8914 9.41C2.8274 9.41 2.7674 9.427 2.7114 9.461C2.6554 9.495 2.6124 9.543 2.5824 9.605L2.0484 9.338C2.1284 9.188 2.2454 9.07 2.3994 8.984C2.5534 8.896 2.7394 8.852 2.9574 8.852C3.1234 8.852 3.2704 8.879 3.3984 8.933C3.5264 8.987 3.6264 9.064 3.6984 9.164C3.7704 9.264 3.8064 9.379 3.8064 9.509C3.8064 9.625 3.7814 9.734 3.7314 9.836C3.6834 9.936 3.5884 10.05 3.4464 10.178L3.1464 10.451H3.8544Z" fill="#011949"/>
<path d="M3.34461 13.731C3.50661 13.771 3.63061 13.844 3.71661 13.95C3.80461 14.054 3.84861 14.18 3.84861 14.328C3.84861 14.454 3.81361 14.572 3.74361 14.682C3.67561 14.79 3.56961 14.878 3.42561 14.946C3.28161 15.014 3.10261 15.048 2.88861 15.048C2.74061 15.048 2.59261 15.032 2.44461 15C2.29861 14.968 2.17061 14.921 2.06061 14.859L2.30061 14.337C2.38661 14.387 2.47861 14.425 2.57661 14.451C2.67661 14.477 2.77261 14.49 2.86461 14.49C2.94661 14.49 3.01261 14.476 3.06261 14.448C3.11261 14.42 3.13761 14.38 3.13761 14.328C3.13761 14.232 3.05461 14.184 2.88861 14.184H2.60961V13.749L2.91861 13.434H2.16861V12.9H3.73461V13.335L3.34461 13.731Z" fill="#011949"/>
</svg>
