<svg width="16" height="20" viewBox="0 0 16 10" fill="none" xmlns="http://www.w3.org/2000/svg">
<path fill-rule="evenodd" clip-rule="evenodd" d="M1 0C0.447715 0 0 0.447715 0 1C0 1.55228 0.447715 2 1 2C1.55228 2 2 1.55228 2 1C2 0.447715 1.55228 0 1 0ZM5 0C4.44772 0 4 0.447715 4 1C4 1.55228 4.44771 2 5 2H15C15.5523 2 16 1.55228 16 1C16 0.447715 15.5523 0 15 0H5ZM4 5C4 4.44772 4.44772 4 5 4H15C15.5523 4 16 4.44772 16 5C16 5.55228 15.5523 6 15 6H5C4.44771 6 4 5.55228 4 5ZM1 4C0.447715 4 0 4.44772 0 5C0 5.55228 0.447715 6 1 6C1.55228 6 2 5.55228 2 5C2 4.44772 1.55228 4 1 4ZM4 9C4 8.44771 4.44772 8 5 8H15C15.5523 8 16 8.44771 16 9C16 9.55229 15.5523 10 15 10H5C4.44771 10 4 9.55229 4 9ZM1 8C0.447715 8 0 8.44771 0 9C0 9.55229 0.447715 10 1 10C1.55228 10 2 9.55229 2 9C2 8.44771 1.55228 8 1 8Z" fill="#011949"/>
</svg>
